<svg xmlns="http://www.w3.org/2000/svg" viewBox="0 0 512 512">
  <rect width="512" height="512" rx="100" fill="#16a34a"/>
  <g transform="translate(64, 64) scale(0.75)">
    <path fill="#ffffff" d="M502.6 27.6c-4.4-14.7-18.4-24.6-33.8-24.2-29.2.7-104.3 7.8-185 88.5-44.5 44.5-74.9 97-93.5 147.2L68 361.3C40 389.3 22.8 425.2 18.6 464c-1 9 6.2 16 15.4 16 7.6 0 14-5.3 15.3-12.8 4-22.7 13.9-44.1 28.9-62.4l123-123c50.3-18.6 102.8-49 147.2-93.5 80.7-80.7 87.8-155.8 88.5-185 .4-15.4-9.5-29.4-24.2-33.8zM245.9 332.9L161.4 417.4c-6.2 6.2-16.4 6.2-22.6 0-6.2-6.2-6.2-16.4 0-22.6l84.5-84.5c6.2-6.2 16.4-6.2 22.6 0 6.2 6.2 6.2 16.4 0 22.6z"/>
  </g>
</svg>
